<svg width="96" height="96" xmlns="http://www.w3.org/2000/svg" xmlns:xlink="http://www.w3.org/1999/xlink" overflow="hidden"><defs><clipPath id="clip0"><rect x="592" y="264" width="96" height="96"/></clipPath></defs><g clip-path="url(#clip0)" transform="translate(-592 -264)"><path d="M647 290.9C647 294.8 643.9 297.9 640 297.9 636.1 297.9 633 294.8 633 290.9 633 287 636.1 283.9 640 283.9 643.9 283.9 647 287.1 647 290.9" fill="#F9E81E"/><path d="M675 294.9C675 298.8 671.9 301.9 668 301.9 664.1 301.9 661 298.8 661 294.9 661 291 664.1 287.9 668 287.9 671.9 287.9 675 291 675 294.9" fill="#F9E81E"/><path d="M619 294.9C619 298.8 615.9 301.9 612 301.9 608.1 301.9 605 298.8 605 294.9 605 291 608.1 287.9 612 287.9 615.9 287.9 619 291 619 294.9" fill="#F9E81E"/><path d="M600.6 340.1C600.6 325.5 618.2 313.7 640 313.7 661.7 313.7 679.4 325.5 679.4 340.1L600.6 340.1Z" fill="#F9E81E"/><path d="M609.6 317.4C613.8 314.6 618.7 312.4 624 311L624 309.9C624 308.8 623.5 307.7 622.8 307 622.5 306.7 621.8 306.3 620.9 305.9 615.4 303.3 608.9 303.3 603.3 305.8 602.3 306.2 601.5 306.7 601.1 307 600.5 307.7 600 308.8 600 309.9L600 326.9C602.3 323.4 605.5 320.1 609.6 317.4" fill="#F9E81E"/><path d="M652 310 652 305.9C652 304.8 651.5 303.7 650.8 303 650.5 302.7 649.8 302.3 648.9 301.9 643.4 299.3 636.9 299.3 631.3 301.8 630.3 302.2 629.5 302.7 629.1 303 628.3 303.7 627.9 304.8 627.9 305.9L627.9 310C631.8 309.2 635.8 308.8 639.9 308.8 644 308.8 648.1 309.3 652 310" fill="#F9E81E"/><path d="M680 326.9 680 309.9C680 308.8 679.5 307.7 678.8 307 678.5 306.7 677.8 306.3 676.9 305.9 671.4 303.3 664.9 303.3 659.3 305.8 658.3 306.2 657.5 306.7 657.1 307 656.3 307.7 655.9 308.8 655.9 309.9L655.9 311C661.2 312.4 666.1 314.6 670.3 317.4 674.5 320.1 677.7 323.4 680 326.9" fill="#F9E81E"/></g></svg>